<svg xmlns="http://www.w3.org/2000/svg" height="512pt" preserveAspectRatio="xMidYMid meet" viewBox="0 0 512 512" width="512pt" fill="currentColor" stroke="currentColor"><g transform="matrix(.1 0 0 -.1 0 512)"><path d="m1650 5111c-73-23-148-90-176-157-18-43-18-155 0-198 28-68 130-156 181-156 13 0 15-59 15-524v-524l-55-31c-58-33-106-89-127-149-8-24-12-95-13-198 0-145 2-164 19-183 26-29 86-29 112 0 17 18 20 42 24 183 3 99 10 169 17 182 7 12 28 29 47 38 30 14 95 16 571 16 591 0 589 0 620-61 22-42 22-1306 0-1348-22-44-70-61-169-61h-86l1 83v82l47 30c31 20 54 46 72 80 25 49 25 50 25 315s0 266-25 315c-18 34-41 60-75 83-40 26-54 44-71 87-75 187-261 283-444 229-114-34-197-111-243-227-18-45-32-62-72-89-34-23-57-49-75-83-25-49-25-50-25-315s0-266 25-315c18-34 41-60 72-80l47-30v-82l1-83h-81c-89 0-141 17-162 54-8 15-13 123-17 372-5 328-6 353-24 373-26 29-86 29-112 0-18-20-19-41-19-373 0-263 3-360 13-388 22-61 69-116 127-149l55-31v-669-669h-102c-57 0-120-5-141-11-47-13-112-70-138-120-26-51-26-147 0-198 26-50 91-107 138-120 53-15 1623-15 1676 0 21 6 56 27 78 46 57 52 79 100 79 173s-22 121-79 173c-51 46-93 57-218 57h-103v55 55h228l227-1 20-42c38-78 149-130 239-113 57 11 127 65 155 119 22 43 25 62 25 157 1 127-10 150-74 150-60 0-72-23-79-145-5-88-9-106-26-119-28-22-67-20-93 4l-22 21v594 595h70 69l3-349c3-327 4-350 22-370 26-29 86-29 112 0 18 20 19 43 22 380l3 358 28 20c55 39 65 78 69 271 5 198-6 277-43 326-44 57-85 66-301 62-187-3-191-3-231-30-72-47-78-72-78-318 0-238 7-268 66-311 27-19 29-25 29-85v-64h-220-220v60 60l49 24c55 29 95 71 125 136 21 44 21 56 21 715s0 671-21 715c-30 65-70 107-125 136l-49 24v525c0 466 2 525 15 525 51 0 153 88 181 156 18 43 18 155 0 198-19 47-82 113-130 139-41 22-45 22-646 24-333 1-616-2-630-6zm1241-179c41-46 41-108 0-154l-29-33-187-5c-181-5-187-6-206-29-26-32-24-67 6-96 22-23 31-25 125-25h100v-515-515h-435-435v515 515h185c184 0 186 0 210 25 32 31 32 69 0 100l-24 25h-251c-269 0-290 3-324 52-36 51-9 145 48 168 11 5 283 8 604 7l584-2zm-568-1833c57-16 137-95 137-137 0-4-20-22-43-39-28-19-53-49-68-79-24-48-24-54-24-314 0-265 0-266 25-315 18-34 41-60 72-80l47-30v-82l1-83h-210-210l1 83v82l47 30c31 20 54 46 72 80 25 49 25 50 25 315 0 260 0 266-24 314-15 30-40 60-68 79-48 34-49 37-29 75 46 87 149 129 249 101zm-305-299c21-20 22-26 22-270s-1-250-22-270c-12-11-34-20-48-20s-36 9-48 20c-21 20-22 26-22 270s1 250 22 270c12 11 34 20 48 20s36-9 48-20zm580 0c21-20 22-26 22-270s-1-250-22-270c-12-11-34-20-48-20s-36 9-48 20c-21 20-22 26-22 270s1 250 22 270c12 11 34 20 48 20s36-9 48-20zm1097-660v-195h-165-165l-3 185c-1 101 0 190 3 197 3 11 41 13 167 11l163-3zm-995-645v-295h-435-435v295 295h435 435zm600-40v-75h-220-220v75 75h220 220zm0-330v-105h-220-220v105 105h220 220zm-600-370v-295h-200c-200 0-201 0-225-25-14-13-25-36-25-50s11-37 25-50l24-25h379c369 0 380-1 406-21 37-29 37-89 0-118-27-21-33-21-819-21s-792 0-819 21c-37 29-37 89 0 118 25 20 39 21 291 21h264l24 25c32 31 32 69 0 100-22 23-32 25-110 25h-85v295 295h435 435zm600 40v-75h-220-220v75 75h220 220z"/><path d="m2188 4185c-137-50-199-210-133-342 15-28 41-63 60-78 167-127 395-17 395 190 0 171-164 288-322 230zm141-161c26-21 31-33 31-69s-5-48-31-69c-17-15-43-26-59-26s-42 11-59 26c-26 21-31 33-31 69s5 48 31 69c17 15 43 26 59 26s42-11 59-26z"/></g></svg>